PathFileType	4	(X/Y/Z)	/Users/itak/Documents/Research/Walk-IL/dataset/trc/00254_00009.trc
DataRate	CameraRate	NumFrames	NumMarkers	Units	OrigDataRate	OrigDataStartFrame	OrigNumFrames
100.000000	100.000000	4	53	mm	100.000000	480	549
Frame#	Time	RPSI			LPSI			L3			STRN			T10			C7			CLAV			RBAK			LBAK			LSHO			LUPA			LAEL			LAOL			LWTS			LWPS			LFRA			LIFD			LHPS			LHTS			RSHO			RUPA			RAEL			RAOL			RWTS			RWPS			RFRA			RIFD			RHTS			RHPS			RBHD			LFHD			RFHD			LBHD			LHIP			RHIP			RASI			LASI			LKNE			LTHI			LANK			LTIP			LTOE			LMT1			LMT5			LHEE			RKNE			RTHI			RANK			RTIP			RTOE			RMT1			RMT5			RHEE			
		X1	Y1	Z1	X2	Y2	Z2	X3	Y3	Z3	X4	Y4	Z4	X5	Y5	Z5	X6	Y6	Z6	X7	Y7	Z7	X8	Y8	Z8	X9	Y9	Z9	X10	Y10	Z10	X11	Y11	Z11	X12	Y12	Z12	X13	Y13	Z13	X14	Y14	Z14	X15	Y15	Z15	X16	Y16	Z16	X17	Y17	Z17	X18	Y18	Z18	X19	Y19	Z19	X20	Y20	Z20	X21	Y21	Z21	X22	Y22	Z22	X23	Y23	Z23	X24	Y24	Z24	X25	Y25	Z25	X26	Y26	Z26	X27	Y27	Z27	X28	Y28	Z28	X29	Y29	Z29	X30	Y30	Z30	X31	Y31	Z31	X32	Y32	Z32	X33	Y33	Z33	X34	Y34	Z34	X35	Y35	Z35	X36	Y36	Z36	X37	Y37	Z37	X38	Y38	Z38	X39	Y39	Z39	X40	Y40	Z40	X41	Y41	Z41	X42	Y42	Z42	X43	Y43	Z43	X44	Y44	Z44	X45	Y45	Z45	X46	Y46	Z46	X47	Y47	Z47	X48	Y48	Z48	X49	Y49	Z49	X50	Y50	Z50	X51	Y51	Z51	X52	Y52	Z52	X53	Y53	Z53	

481	4.8	-85.92093658447266	1040.483764648438	600.4140625	33.35228729248047	1045.236328125	584.417236328125	-13.62113666534424	1124.941772460938	585.1732177734375	23.50626182556152	1315.544311523438	827.9520263671875	-22.06564903259277	1253.003295898438	582.112548828125	-12.88456916809082	1515.22021484375	638.8941650390625	16.37306976318359	1432.602661132812	801.751708984375	-95.20284271240234	1373.447875976562	579.7003784179688	92.52777099609375	1478.378784179688	598.2048950195312	163.4202728271484	1479.880493164062	675.197021484375	233.3307800292969	1359.96484375	634.3797607421875	263.7066650390625	1150.003173828125	652.7655639648438	199.7532196044922	1129.077392578125	596.751220703125	236.7432250976562	924.5882568359375	772.9197387695312	303.9477844238281	904.2686157226562	724.7280883789062	283.3109741210938	1044.91015625	677.2843627929688	241.3496704101562	730.5514526367188	783.33837890625	303.6991882324219	816.9893188476562	746.7872924804688	266.5211791992188	824.29443359375	803.5643920898438	-169.2140045166016	1475.489990234375	724.6843872070312	-238.3821258544922	1410.814453125	718.3782958984375	-283.1814270019531	1129.840576171875	708.8502807617188	-199.2449645996094	1120.435791015625	663.6991577148438	-217.0701293945312	931.693603515625	858.2326049804688	-287.7117614746094	909.6658325195312	815.7764892578125	-291.8244018554688	1063.547729492188	741.772705078125	-203.5138854980469	741.2269897460938	896.5501708984375	-223.2854919433594	816.2772216796875	912.2910766601562	-279.0585021972656	808.741455078125	867.1698608398438	-51.41163635253906	1674.072265625	686.7008666992188	61.06194686889648	1716.102294921875	879.6863403320312	-38.65306854248047	1712.768676757812	888.4895629882812	84.86794281005859	1683.606079101562	720.0073852539062	185.8716430664062	985.5206298828125	670.4083251953125	-179.4597015380859	1004.386596679688	712.2461547851562	-129.3653717041016	1049.882568359375	802.8565063476562	149.7520446777344	1034.5087890625	772.7171020507812	149.6997375488281	512.3826293945312	789.4981689453125	176.3318176269531	651.2119140625	756.1559448242188	136.9186248779297	35.65326690673828	700.978759765625	152.6656494140625	283.9454040527344	743.69091796875	81.35190582275391	42.38738632202148	917.49609375	38.48912048339844	39.84502410888672	848.4474487304688	155.9986877441406	35.59065246582031	828.6604614257812	83.72626495361328	41.98928070068359	640.5455932617188	-125.6445693969727	514.9288330078125	775.4755859375	-173.2967987060547	782.2640991210938	781.04052734375	-99.81896209716797	37.6553955078125	666.5671997070312	-105.1550979614258	393.7831420898438	776.1105346679688	-44.48040390014648	43.19049072265625	876.4185180664062	-6.696885108947754	39.22065734863281	815.8792724609375	-120.3848724365234	38.59321594238281	777.4215698242188	-46.37123489379883	35.15621948242188	600.9785766601562	
482	4.81	-84.41804504394531	1040.696044921875	601.9398193359375	34.86574172973633	1045.624755859375	586.2177124023438	-12.01473140716553	1125.118896484375	586.7924194335938	24.39616966247559	1316.000244140625	829.414794921875	-20.38200187683105	1253.22216796875	583.2506103515625	-10.94327735900879	1515.493286132812	639.987548828125	17.42404556274414	1433.095947265625	803.09521484375	-93.03518676757812	1373.744506835938	580.530029296875	94.77661895751953	1478.594116210938	599.8563232421875	165.0805053710938	1480.10107421875	677.3554077148438	235.3416748046875	1360.10986328125	637.7672729492188	265.4899291992188	1150.213134765625	658.37060546875	202.5802307128906	1128.8525390625	601.41015625	236.2371520996094	925.85888671875	780.0416259765625	304.301513671875	905.1119995117188	733.308349609375	284.6260681152344	1045.313842773438	684.1741943359375	240.5368957519531	731.915283203125	792.1519775390625	303.63671875	818.0281982421875	756.0984497070312	265.3683471679688	825.8278198242188	812.0612182617188	-167.7516632080078	1475.953857421875	725.069580078125	-236.8285522460938	1411.193359375	718.3997802734375	-281.0784301757812	1130.1474609375	708.5962524414062	-196.8451080322266	1120.920654296875	664.018798828125	-216.1184692382812	931.5519409179688	857.8577880859375	-286.5108947753906	909.7183837890625	814.8208618164062	-290.218017578125	1063.878295898438	741.0791015625	-203.0799102783203	740.9215087890625	895.657958984375	-222.8368835449219	815.9421997070312	911.4600219726562	-278.3053588867188	808.6222534179688	865.9531860351562	-49.69955444335938	1674.418579101562	687.7037353515625	62.49656295776367	1716.423950195312	880.8668823242188	-37.27738189697266	1713.23486328125	889.5023193359375	86.5611572265625	1683.84423828125	721.23291015625	187.5854797363281	986.2978515625	672.2163696289062	-177.9721832275391	1004.550415039062	713.6896362304688	-128.1021270751953	1050.469360351562	804.3016357421875	150.9307250976562	1034.973754882812	774.6544189453125	150.677978515625	512.3070678710938	788.3548583984375	177.555908203125	651.4717407226562	756.0674438476562	137.1418609619141	35.48512649536133	700.864013671875	153.2201080322266	283.8502502441406	743.1207275390625	81.35651397705078	42.41350936889648	917.4451904296875	38.52931594848633	39.92815017700195	848.389892578125	156.0928039550781	35.52281188964844	828.6117553710938	83.92951965332031	41.89960479736328	640.5086669921875	-124.8494110107422	515.0319213867188	775.8867797851562	-172.0678558349609	782.3208618164062	782.2744140625	-99.62462615966797	37.85531997680664	666.6633911132812	-104.5316314697266	393.9514770507812	776.3291625976562	-44.47895050048828	43.21122741699219	876.4354248046875	-6.677133083343506	39.21256256103516	815.8690185546875	-120.2666244506836	38.6851692199707	777.4364624023438	-46.24308395385742	35.31189346313477	601.0313720703125	
483	4.82	-82.91634368896484	1040.988037109375	603.4586181640625	36.37024688720703	1046.058837890625	587.9791870117188	-10.39810562133789	1125.333862304688	588.396240234375	25.22408103942871	1316.485229492188	830.8457641601562	-18.68787384033203	1253.463989257812	584.3631591796875	-9.006098747253418	1515.789428710938	641.0484619140625	18.4422721862793	1433.610229492188	804.4063720703125	-90.89423370361328	1374.055053710938	581.3489990234375	97.00235748291016	1478.830810546875	601.4888916015625	166.7106170654297	1480.346557617188	679.5046997070312	237.3348846435547	1360.307250976562	641.1390991210938	267.2641906738281	1150.494262695312	663.86279296875	205.4467315673828	1128.675415039062	605.9476928710938	235.6168823242188	927.2674560546875	787.1009521484375	304.5751037597656	906.0829467773438	741.8896484375	285.9055480957031	1045.799438476562	690.9901733398438	239.6027221679688	733.4545288085938	801.0325927734375	303.463134765625	819.2249755859375	765.460205078125	264.0907287597656	827.5479125976562	820.5601806640625	-166.301025390625	1476.47607421875	725.42236328125	-235.3009338378906	1411.65087890625	718.3901977539062	-279.0419006347656	1130.526123046875	708.2648315429688	-194.5226745605469	1121.493896484375	664.2318725585938	-215.1505279541016	931.4344482421875	857.3141479492188	-285.3206787109375	909.831298828125	813.7230834960938	-288.6382446289062	1064.265258789062	740.3192138671875	-202.6052551269531	740.6126098632812	894.4609985351562	-222.3242797851562	815.5935668945312	910.3914794921875	-277.5240783691406	808.484375	864.523193359375	-48.01454544067383	1674.7880859375	688.6578979492188	63.90464401245117	1716.7783203125	881.994873046875	-35.92063140869141	1713.722534179688	890.4546508789062	88.23397064208984	1684.097290039062	722.4074096679688	189.2474975585938	987.1483154296875	673.9702758789062	-176.5146026611328	1004.774719238281	715.1082153320312	-126.8307189941406	1051.019287109375	805.6656494140625	152.1039733886719	1035.443603515625	776.535888671875	151.6251831054688	512.2156372070312	787.0825805664062	178.7800598144531	651.7222290039062	755.8887939453125	137.3243560791016	35.33945846557617	700.7689819335938	153.7471160888672	283.7774047851562	742.440673828125	81.34650421142578	42.44386672973633	917.3971557617188	38.55062484741211	39.98895263671875	848.3574829101562	156.1461639404297	35.46890640258789	828.5936279296875	84.11703491210938	41.79125595092773	640.4945068359375	-124.0844650268555	515.1746215820312	776.0043334960938	-170.8413238525391	782.4025268554688	783.389892578125	-99.46126556396484	38.02474212646484	666.7369384765625	-103.9380722045898	394.1650085449219	776.2850341796875	-44.47784805297852	43.23589324951172	876.43701171875	-6.652307510375977	39.20707321166992	815.8485717773438	-120.1638641357422	38.76721572875977	777.4415893554688	-46.12692642211914	35.43056488037109	601.0690307617188	
484	4.83	-81.42353057861328	1041.343627929688	604.9655151367188	37.85894012451172	1046.521484375	589.698486328125	-8.766836166381836	1125.579711914062	589.9844970703125	25.99338912963867	1316.984497070312	832.2443237304688	-16.96158027648926	1253.71484375	585.4558715820312	-7.078327655792236	1516.0947265625	642.0796508789062	19.43874549865723	1434.12548828125	805.6843872070312	-88.77790069580078	1374.360717773438	582.1585693359375	99.20151519775391	1479.07568359375	603.0994873046875	168.315185546875	1480.6005859375	681.6342163085938	239.3177947998047	1360.540283203125	644.47705078125	269.0371704101562	1150.826049804688	669.2222290039062	208.3481292724609	1128.528442382812	610.3516845703125	234.9163513183594	928.80517578125	794.076416015625	304.7688293457031	907.1585083007812	750.4299926757812	287.1539001464844	1046.344360351562	697.705322265625	238.5558471679688	735.1622314453125	809.989990234375	303.1766967773438	820.5607299804688	774.8435668945312	262.7135009765625	829.447265625	829.0447998046875	-164.8617095947266	1477.025756835938	725.7455444335938	-233.8017272949219	1412.162353515625	718.3538208007812	-277.1010131835938	1130.957275390625	707.8724975585938	-192.3157806396484	1122.124267578125	664.3382568359375	-214.17041015625	931.32421875	856.6118774414062	-284.1410522460938	909.9739379882812	812.5152587890625	-287.0801696777344	1064.683715820312	739.5444946289062	-202.0611572265625	740.2940063476562	892.980712890625	-221.7256927490234	815.2255249023438	909.1105346679688	-276.7087707519531	808.326416015625	862.9030151367188	-46.3569221496582	1675.168212890625	689.5626220703125	65.28313446044922	1717.154296875	883.0700073242188	-34.58171463012695	1714.220581054688	891.3457641601562	89.88044738769531	1684.3515625	723.5339965820312	190.8128509521484	988.0039672851562	675.7290649414062	-175.0962982177734	1005.043518066406	716.5	-125.5593566894531	1051.495361328125	806.948486328125	153.2661895751953	1035.88671875	778.3638916015625	152.5384368896484	512.0992431640625	785.6959838867188	179.9839630126953	651.9456787109375	755.6226806640625	137.4668273925781	35.21988677978516	700.6845092773438	154.236083984375	283.7186279296875	741.6618041992188	81.32387542724609	42.47345352172852	917.3450317382812	38.55417251586914	40.02767944335938	848.3414306640625	156.1657257080078	35.43058776855469	828.5912475585938	84.28477478027344	41.66655349731445	640.4906616210938	-123.3533782958984	515.3458862304688	775.8526000976562	-169.6718444824219	782.5370483398438	784.3644409179688	-99.32749938964844	38.16127777099609	666.7825317382812	-103.3788146972656	394.410400390625	776.0001831054688	-44.47614669799805	43.26499176025391	876.42333984375	-6.622103214263916	39.20285797119141	815.818115234375	-120.075065612793	38.83773803710938	777.4381103515625	-46.02005767822266	35.51171112060547	601.0906372070312	
